# xmcd
#
# Track frame offsets: 
#        150
#        17402
#        32850
#        55382
#        77662
#        93324
#        107596
#        124830
#        143550
#        155700
#        172678
#        185777
#        205092
#        224794
#        244779
#
# Disc length: 3409 seconds
#
# Revision: 4
# Processed by: cddbd v1.5.2PL0 Copyright (c) Steve Scherf et al.
# Submitted via: ExactAudioCopy v1.3
#
DISCID=cd0d4f0f
DTITLE=Robby Turner - Robby Turner_MAN OF STEEL
DYEAR=1996
DGENRE=Instrumental
TTITLE0=Twin Guitar Special
TTITLE1=Loneley Street
TTITLE2=Honky Tonk Struttin'
TTITLE3=Night Life
TTITLE4=Dixie Steel Rag
TTITLE5=Lost In The Feeling
TTITLE6=Woman From Memphis
TTITLE7=Sleep Walk
TTITLE8=What A Way To Live
TTITLE9=I Fall To Pieces
TTITLE10=Steel Guitar Rag
TTITLE11=I'm Not Lisa
TTITLE12=Love Is...
TTITLE13=Misty
TTITLE14=Flying "W"
EXTD=
EXTT0=
EXTT1=
EXTT2=
EXTT3=
EXTT4=
EXTT5=
EXTT6=
EXTT7=
EXTT8=
EXTT9=
EXTT10=
EXTT11=
EXTT12=
EXTT13=
EXTT14=
PLAYORDER=
